<svg width="20" height="14" viewBox="0 0 20 14" fill="none" xmlns="http://www.w3.org/2000/svg">
<path d="M9.667 1C7.177 1 5.623 2.222 5 4.667C5.933 3.444 7.023 2.987 8.267 3.292C8.977 3.466 9.484 3.972 10.045 4.532C10.961 5.444 12.045 6.5 14.333 6.5C16.823 6.5 18.377 5.278 19 2.833C18.067 4.056 16.977 4.513 15.733 4.208C15.023 4.034 14.516 3.528 13.955 2.968C13.039 2.056 11.98 1 9.667 1ZM5.667 7.5C3.177 7.5 1.623 8.722 1 11.167C1.933 9.944 3.023 9.487 4.267 9.792C4.977 9.966 5.484 10.472 6.045 11.032C6.961 11.944 8.02 13 10.333 13C12.823 13 14.377 11.778 15 9.333C14.067 10.556 12.977 11.013 11.733 10.708C11.023 10.534 10.516 10.028 9.955 9.468C9.039 8.556 7.98 7.5 5.667 7.5Z" stroke="white" stroke-width="2" stroke-linecap="round" stroke-linejoin="round"/>
</svg>
