<svg width="88" height="80" viewBox="0 0 88 80" fill="none" xmlns="http://www.w3.org/2000/svg">
<path d="M29.4752 0.0374857C26.8267 -0.141325 24.2221 0.335504 21.9403 1.65306C18.8969 3.4098 16.869 6.41194 15.7813 9.8721C14.6937 13.3228 14.443 17.3069 14.841 21.6579C14.8787 22.0971 14.957 22.5583 15.0103 23.0069C14.5966 23.1825 14.1578 23.3457 13.7566 23.5339C9.79478 25.3628 6.47552 27.5713 4.02761 30.2409C1.58284 32.9136 0 36.1699 0 39.6896C0 43.2063 1.58284 46.4656 4.02761 49.1384C6.47239 51.808 9.79478 54.0165 13.7566 55.8454C14.1578 56.0336 14.5966 56.1967 15.0103 56.3724C14.957 56.821 14.8787 57.2821 14.8379 57.7213C14.443 62.0724 14.6937 66.0533 15.7813 69.5103C16.869 72.9673 18.8969 75.9663 21.9403 77.7262C24.9837 79.4829 28.5913 79.7433 32.1269 78.9591C35.6624 78.1748 39.2324 76.3961 42.7961 73.8771C43.1566 73.6261 43.517 73.3281 43.8806 73.0583C44.241 73.3281 44.6015 73.623 44.9651 73.8771C48.5288 76.3961 52.0988 78.1748 55.6343 78.9591C59.1698 79.7433 62.7775 79.4861 65.8209 77.7262C68.8643 75.9695 70.8922 72.9673 71.9799 69.5072C73.0675 66.0564 73.3182 62.0724 72.9202 57.7213C72.8825 57.2821 72.8042 56.821 72.7509 56.3724C73.1646 56.1967 73.6034 56.0336 74.0046 55.8454C77.9664 54.0165 81.2857 51.808 83.7336 49.1384C86.1784 46.4656 87.7612 43.2094 87.7612 39.6896C87.7612 36.173 86.1784 32.9136 83.7336 30.2409C81.2888 27.5713 77.9664 25.3628 74.0046 23.5339C73.6034 23.3457 73.1646 23.1825 72.7509 23.0069C72.8042 22.5583 72.8825 22.0971 72.9233 21.6579C73.3182 17.3069 73.0675 13.326 71.9799 9.86896C70.8922 6.41194 68.8643 3.41294 65.8209 1.65306C62.7775 -0.103681 59.1698 -0.364054 55.6343 0.420205C52.0988 1.20446 48.5288 2.98316 44.9651 5.50221C44.6046 5.75317 44.2442 6.05119 43.8806 6.32097C43.5201 6.05119 43.1597 5.75631 42.7961 5.50221C39.2324 2.98316 35.6624 1.20446 32.1269 0.420205C31.254 0.224439 30.3676 0.0954471 29.4752 0.0343489V0.0374857ZM29.0678 6.28646C29.6006 6.32411 30.1679 6.41194 30.7728 6.54997C33.1424 7.07386 35.979 8.40396 38.9722 10.487C36.3442 12.9906 33.9082 15.6888 31.6849 18.5586C28.0955 19.0485 24.5479 19.8077 21.0721 20.8298C20.7649 17.1971 21.0282 14.0726 21.7554 11.7575C22.5045 9.38586 23.6203 7.93027 25.0746 7.08641C26.1654 6.459 27.463 6.16412 29.0646 6.28646H29.0678ZM58.6966 6.28646C60.2951 6.16412 61.5958 6.459 62.6866 7.08641C64.1409 7.92713 65.2567 9.38586 66.0058 11.7575C66.733 14.0726 66.9963 17.1971 66.6891 20.8298C63.2133 19.8077 59.6657 19.0485 56.0763 18.5586C53.853 15.6888 51.417 12.9906 48.789 10.487C51.7822 8.40396 54.6188 7.07386 56.9884 6.54997C57.5933 6.41508 58.1606 6.32411 58.6966 6.28646ZM43.8806 14.4647C44.9807 15.4843 46.0809 16.6167 47.181 17.8025C46.0814 17.7589 44.9811 17.7348 43.8806 17.7304C42.7679 17.7304 41.674 17.7649 40.5801 17.8025C41.6772 16.6167 42.7804 15.4843 43.8806 14.4647ZM43.8806 24.0044C46.9052 24.0044 49.8358 24.1833 52.6536 24.4813C54.382 26.8499 55.9838 29.3087 57.4522 31.847C58.963 34.4665 60.2731 37.0953 61.4266 39.6896C60.2412 42.3723 58.9146 44.9902 57.4522 47.5322C55.9838 50.0706 54.382 52.5293 52.6536 54.898C49.8327 55.196 46.9052 55.3748 43.8806 55.3748C40.856 55.3748 37.9254 55.196 35.1076 54.898C33.3792 52.5293 31.7774 50.0706 30.309 47.5322C28.7982 44.9128 27.4881 42.284 26.3346 39.6896C27.4849 37.0953 28.7982 34.4665 30.309 31.847C31.8197 29.2276 33.4402 26.7745 35.1076 24.4813C38.0215 24.1673 40.9499 24.0081 43.8806 24.0044ZM26.5916 25.8867C26.0118 26.8121 25.4351 27.7438 24.8803 28.71C24.3345 29.6667 23.8058 30.6331 23.2943 31.6086C22.8242 30.115 22.4112 28.6039 22.0563 27.0787C23.4887 26.6364 25.0182 26.2443 26.5916 25.8867ZM61.1696 25.8867C62.743 26.2443 64.2725 26.6364 65.7049 27.0787C65.3727 28.5437 64.9433 30.0652 64.4669 31.6086C63.9554 30.6331 63.4267 29.6667 62.8809 28.71C62.3272 27.7588 61.7567 26.8176 61.1696 25.8867ZM16.1543 29.3468C16.9567 32.6878 18.0631 36.1542 19.4987 39.6896C18.1262 43.0484 17.0083 46.5058 16.1543 50.0324C12.8601 48.4796 10.2869 46.6852 8.65075 44.8971C6.97388 43.0651 6.26866 41.3711 6.26866 39.6896C6.26866 38.0082 6.97388 36.3142 8.65075 34.4822C10.2869 32.694 12.8601 30.8997 16.1543 29.3468ZM71.6069 29.3468C74.901 30.8997 77.4743 32.694 79.1105 34.4822C80.7873 36.3142 81.4925 38.0082 81.4925 39.6896C81.4925 41.3711 80.7873 43.0651 79.1105 44.8971C77.4743 46.6852 74.901 48.4796 71.6069 50.0324C70.7529 46.5058 69.635 43.0484 68.2625 39.6896C69.6981 36.1542 70.8045 32.6878 71.6069 29.3468ZM43.8806 30.2785C38.7246 30.2785 34.4776 34.5292 34.4776 39.6896C34.4776 44.8501 38.7246 49.1007 43.8806 49.1007C49.0366 49.1007 53.2836 44.8501 53.2836 39.6896C53.2836 34.5292 49.0366 30.2785 43.8806 30.2785ZM43.8806 36.5526C45.6484 36.5526 47.0149 37.9203 47.0149 39.6896C47.0149 41.4589 45.6484 42.8267 43.8806 42.8267C42.1128 42.8267 40.7463 41.4589 40.7463 39.6896C40.7463 37.9203 42.1128 36.5526 43.8806 36.5526ZM23.2943 47.7706C23.8052 48.7369 24.3224 49.7031 24.8772 50.6693C25.4351 51.6355 26.0118 52.5672 26.5916 53.4926C25.0182 53.135 23.4887 52.7428 22.0563 52.3005C22.3885 50.8355 22.8179 49.3141 23.2943 47.7706ZM64.4669 47.7706C64.9433 49.3141 65.3758 50.8355 65.7049 52.3005C64.2725 52.7428 62.743 53.135 61.1696 53.4926C61.7494 52.5672 62.3261 51.6355 62.884 50.6693C63.4388 49.7031 63.956 48.7369 64.4669 47.7706ZM21.0721 58.5495C24.3631 59.522 27.9143 60.3 31.6849 60.8207C34.0263 63.8323 36.4804 66.5238 38.9722 68.8923C35.979 70.9753 33.1424 72.3054 30.7728 72.8293C28.35 73.3689 26.529 73.1304 25.0746 72.2929C23.6203 71.4521 22.5045 69.9934 21.7554 67.6218C21.0282 65.3067 20.7649 62.1822 21.0721 58.5495ZM66.6891 58.5495C66.9963 62.1822 66.733 65.3067 66.0058 67.6218C65.2567 69.9934 64.1409 71.449 62.6866 72.2929C61.2322 73.1304 59.4112 73.3689 56.9884 72.8293C54.6188 72.3054 51.7822 70.9753 48.789 68.8923C51.417 66.3886 53.853 63.6905 56.0763 60.8207C59.6657 60.3308 63.2133 59.5715 66.6891 58.5495ZM40.5801 61.5767C41.674 61.6144 42.7679 61.6489 43.8806 61.6489C44.9933 61.6489 46.0872 61.6144 47.181 61.5767C46.084 62.7625 44.9807 63.895 43.8806 64.9146C42.7383 63.8444 41.6374 62.731 40.5801 61.5767Z" fill="white"/>
</svg>
